<svg id="Layer_1" data-name="Layer 1" xmlns="http://www.w3.org/2000/svg" viewBox="0 0 400 300"><title>#71_inovation_twocolour</title><path d="M128.51,66.33c-42.67,11.17-69.7,49.36-61.24,88.33,4.44,20.49,18.44,39.71,51.86,48.77,89.13,24.17,182.08,7.93,209.65-29.75s5.3-118.53-86-121C198.12,51.41,157.91,58.64,128.51,66.33Z" fill="#e6e6e6" opacity="0.27"/><path d="M244,129.5s-5,24.75-21,30-24.75,4.25-24.75,4.25v7.78s38.25,9,58-26.28Z" fill="#68e1fd"/><path d="M244,129.5s-5,24.75-21,30-24.75,4.25-24.75,4.25v7.78s38.25,9,58-26.28Z" fill="#fff" opacity="0.46"/><ellipse cx="193.7" cy="252.73" rx="148.4" ry="18.75" fill="#e6e6e6" opacity="0.45"/><path d="M198.25,102.26a57.47,57.47,0,1,0-99,39.66,46.44,46.44,0,0,1,12.55,32.13v2h56.9v-1.46a46.52,46.52,0,0,1,13.4-32.32A57.23,57.23,0,0,0,198.25,102.26Z" fill="#ffd200"/><line x1="125.34" y1="174.12" x2="113.33" y2="101.4" fill="none" stroke="#fff" stroke-linecap="round" stroke-miterlimit="10" stroke-width="4"/><line x1="167.33" y1="101.4" x2="155.32" y2="174.12" fill="none" stroke="#fff" stroke-linecap="round" stroke-miterlimit="10" stroke-width="4"/><rect x="108.22" y="167.16" width="65.12" height="51.4" fill="#24285b"/><path d="M130,114.12s5.4-10.62,11-3.39c6.93,9,11.67-1,11.67-1" fill="none" stroke="#fff" stroke-linecap="round" stroke-miterlimit="10" stroke-width="4"/><ellipse cx="160.91" cy="70.7" rx="13.95" ry="17.86" transform="translate(32.02 190.2) rotate(-66.56)" fill="#fff" opacity="0.21"/><rect x="92.83" y="218.56" width="96.7" height="34.16" fill="#c9c9c9"/><polygon points="287.6 212.49 294.92 245.74 290.67 245.74 276.42 212.49 287.6 212.49" fill="#f4a28c"/><polygon points="263.79 208.45 255.99 245.74 251.71 245.74 252.36 208.18 263.79 208.45" fill="#f4a28c"/><path d="M266.6,83.62a29.46,29.46,0,0,0-2.38,7.57,2.4,2.4,0,0,0,2.15,2.64,5.31,5.31,0,0,0,5.27-2.3l2.78-3.42a4.28,4.28,0,0,0-.18-5C272.39,80.4,267.71,80.93,266.6,83.62Z" fill="#f4a28c"/><polygon points="286.68 173.13 299.25 230.25 274.5 229.72 263.79 186.25 270.17 176.02 286.68 173.13" fill="#24285b"/><polygon points="273.37 88.89 274.5 104.51 265.85 104.51 268.44 93.44 273.37 88.89" fill="#f4a28c"/><polygon points="247.65 171.53 242.75 230.25 267 230.25 270.17 181 282.25 171.53 247.65 171.53" fill="#24285b"/><path d="M279.31,104.24a23.65,23.65,0,0,1,15.84,5.42c5.1,4.33,9.37,11.79,6.06,24.31-6.6,25-18.43,39.16-18.43,39.16l-35.13-1.6s1.29-16.83-3.24-26.9-8.86-35.53,21.43-40.12Z" fill="#68e1fd"/><path d="M265.46,86.41l-1.89,1.27a.77.77,0,0,0,0,1.29l1.6,1Z" fill="#f4a28c"/><path d="M283.49,114.48s-10.05,6.13-9,15-9.74,37.52-26.7,38.22l-.15,3.81,13.55.62,33.72-12.9,6.33-15Z" opacity="0.08"/><path d="M268.36,93.75a5.84,5.84,0,0,0,2.82-1.35s.56,3.38-3.56,4.52Z" fill="#ce8172" opacity="0.31"/><path d="M270.55,88.7s.67-1.71,1.92-1.1.29,3.09-1.56,2.67Z" fill="#f4a28c"/><path d="M294.92,245.74s2.36,3,5.38,2.85,3.46,4.12-1.4,3.68a27.43,27.43,0,0,1-4.48-.77,7.89,7.89,0,0,0-4.09.15,1.31,1.31,0,0,1-1.39-.56c-1.38-1.62,2-5.35,2-5.35Z" fill="#68e1fd"/><path d="M252,245.74s-2.36,3-5.38,2.85-3.47,4.12,1.4,3.68a27.09,27.09,0,0,0,4.47-.77,7.93,7.93,0,0,1,4.1.15,1.32,1.32,0,0,0,1.39-.56c1.38-1.62-2-5.35-2-5.35Z" fill="#68e1fd"/><circle cx="171.67" cy="229.63" r="4.34" fill="#fff"/><circle cx="171.67" cy="243.18" r="4.34" fill="#fff" opacity="0.48"/><rect x="110.86" y="229" width="45.88" height="14.18" fill="#adadad"/><rect x="256.89" y="139.69" width="26.81" height="37.38" transform="matrix(0.98, -0.18, 0.18, 0.98, -24.48, 52.3)" fill="#ffd200"/><polygon points="257.75 163.92 260.55 179.22 286.9 174.29 285.83 168.92 257.75 163.92" opacity="0.08"/><path d="M285.73,111.16a7.62,7.62,0,0,1,10.82-1c6.31,5.28,15.5,15.68,15,31.19-.73,23.53-17.08,34-51.82,23.55l1.74-6.23s21.34,5.92,32.64-7.25C304.55,139.22,270.15,130.62,285.73,111.16Z" fill="#68e1fd"/><path d="M285.73,111.16a7.62,7.62,0,0,1,10.82-1c6.31,5.28,15.5,15.68,15,31.19-.73,23.53-17.08,34-51.82,23.55l1.74-6.23s21.34,5.92,32.64-7.25C304.55,139.22,270.15,130.62,285.73,111.16Z" fill="#fff" opacity="0.46"/><path d="M267.62,83.76a14,14,0,0,0,4.17,1.91s-1.33,5.23,1.94,8.2c0,0,6.94-5.54,3.77-10.37-2.65-4-4.47-7.39-8.82-6A3.58,3.58,0,0,0,267.62,83.76Z" fill="#24285b"/><circle cx="280.92" cy="82.58" r="4.75" fill="#24285b"/><path d="M261.2,159.67s-8.53-3.59-9.49,0,8,5.19,8,5.19Z" fill="#f4a28c"/><path d="M318,240.23s-8.55-2.33-10.41-10.29c0,0,13.25-2.68,13.63,11Z" fill="#68e1fd" opacity="0.58"/><path d="M319.05,239.38s-6-9.44-.72-18.28c0,0,10.08,6.4,5.6,18.3Z" fill="#68e1fd" opacity="0.73"/><path d="M320.59,239.39s3.16-10,12.7-11.87c0,0,1.79,6.48-6.18,11.9Z" fill="#68e1fd"/><polygon points="314.39 239.17 316.12 251.03 327.04 251.07 328.65 239.23 314.39 239.17" fill="#24285b"/><path d="M198.25,164.86s-11.25-1.19-9.42,3.31,9.42,1.66,9.42,1.66Z" fill="#f4a28c"/><path d="M261.2,105.44s.14-3.15,5-4,12.28-3.59,13.14,2.84Z" fill="#68e1fd"/><path d="M261.2,105.44s.14-3.15,5-4,12.28-3.59,13.14,2.84Z" fill="#fff" opacity="0.46"/><path d="M270.55,88.17s1.08-1.84,2.48-.83.35,3.25-2,3.25Z" fill="#f4a28c"/><polygon points="255.79 37.02 255.79 57.02 268.71 57.02 271.54 64.97 274.88 57.02 287.8 57.02 287.8 37.02 255.79 37.02" fill="#e6e6e6"/><path d="M270.18,51.48h-.05a1,1,0,0,1-.74-.39L266,46.74a1,1,0,1,1,1.58-1.22l2.65,3.42,6.56-7.08a1,1,0,1,1,1.46,1.36l-7.35,7.94A1,1,0,0,1,270.18,51.48Z" opacity="0.12"/></svg>