<svg id="Layer_1" data-name="Layer 1" xmlns="http://www.w3.org/2000/svg" viewBox="0 0 400 300"><title>#126_team meeting_twocolour</title><path d="M250.56,150a49.12,49.12,0,0,0-.65,35.33c7,19.45-8.22,29.27,21.23,31.88S250.56,150,250.56,150Z" fill="#68e1fd"/><path d="M250.56,150a49.12,49.12,0,0,0-.65,35.33c7,19.45-8.22,29.27,21.23,31.88S250.56,150,250.56,150Z" fill="#fff" opacity="0.46"/><ellipse cx="205" cy="260.28" rx="165.67" ry="10.73" fill="#e6e6e6" opacity="0.45"/><polygon points="169.35 257.94 165.06 254.75 183.8 229.53 183.8 186.1 189.14 186.1 189.14 231.3 169.35 257.94" fill="#a5a5a5"/><rect x="192.63" y="225.71" width="5.34" height="33.86" transform="translate(-105.08 160.24) rotate(-35.83)" fill="#a5a5a5"/><rect x="140.28" y="57.06" width="92.39" height="130.65" fill="#e6e6e6"/><path d="M268.25,110.26a31,31,0,0,0-1.11,8.15,2.49,2.49,0,0,0,2.66,2.31,5.49,5.49,0,0,0,5-3.27l2.24-4a4.45,4.45,0,0,0-1.05-5C273.58,106,268.91,107.32,268.25,110.26Z" fill="#f4a28c"/><polygon points="276.08 114.45 279.97 130.19 271.14 131.71 271.84 119.95 276.08 114.45" fill="#f4a28c"/><path d="M267.57,113.31l-1.7,1.62a.79.79,0,0,0,.26,1.31l1.79.7Z" fill="#f4a28c"/><path d="M271.82,120.29s3-1.39,3.83-2.62c0,0-.17,6.47-4.17,8.35Z" fill="#ce8172" opacity="0.31"/><path d="M273.17,114.75s.38-1.87,1.76-1.46.84,3.11-1.12,3Z" fill="#f4a28c"/><path d="M278.89,112.36l-1,1.79s-1.25,4.57-4.29,6.94-7.33,1.87-7.7-1.34c-.42-3.69,2.05-2.81,5.36-3s2.8-4.59,2.8-4.59a3.76,3.76,0,0,1-3.12-1.64l-2-1a3.44,3.44,0,0,1-1.24-5.06,4.62,4.62,0,0,1,2.91-2C274.06,101.9,282.12,107.06,278.89,112.36Z" fill="#24285b"/><path d="M276,112.82s2.4-1.42,3.29.49-1.79,3.41-3.61,2.25A4,4,0,0,0,276,112.82Z" fill="#f4a28c"/><rect x="256.34" y="218.6" width="57.33" height="40.97" fill="#e6e6e6"/><polygon points="271.48 259.57 268.72 223.5 257.22 225.25 253.8 239.09 256.35 259.57 271.48 259.57" opacity="0.08"/><path d="M270,254.83s-1.23,3.42-4.32,3.68-3.89,3.28-1.12,4.06,9.93-2.78,9.93-2.78l-.2-4.45Z" fill="#68e1fd"/><path d="M270.39,131.54l8.83-1.53s29.36.05,34.5,10.1,4.06,47.49-12.93,78.21l-34.77,1s1.93-22.56-4.55-34.85S234.85,146.07,270.39,131.54Z" fill="#68e1fd"/><path d="M300.79,218.32l-17-2.57a16.28,16.28,0,0,0-18.62,17.77l2.22,21.61h8.35L275,234.89a7.66,7.66,0,0,1,8.87-7.84C291.11,228.22,300.08,227.71,300.79,218.32Z" fill="#24285b"/><path d="M252.72,254.83s-1.23,3.42-4.31,3.68-3.89,3.28-1.12,4.06,9.93-2.78,9.93-2.78l-.2-4.45Z" fill="#68e1fd"/><path d="M297.81,143.72s-9.64,8.45-7.7,17.78c.31,1.51.64,3.33,1,5.33a53.19,53.19,0,0,1-12.5,43.59l-6.07,7,28.29.95,2.42-4.74,13.21-22Z" opacity="0.08"/><path d="M283.48,218.32l-17-2.57a16.28,16.28,0,0,0-18.62,17.77l2.22,21.61h8.34l-.72-20.24a7.66,7.66,0,0,1,8.87-7.84C273.8,228.22,282.77,227.71,283.48,218.32Z" fill="#24285b"/><path d="M314.21,141c6.44,9.07,12.16,29.09,7.19,57.3A18.92,18.92,0,0,1,304,213.89l-26.57,1.68V206.9L297.57,204a7.74,7.74,0,0,0,6.3-9.92c-3.56-11.71-9.06-32.93-7.64-48.05C297.09,136.82,308.86,133.52,314.21,141Z" fill="#68e1fd"/><path d="M314.21,141c6.44,9.07,12.16,29.09,7.19,57.3A18.92,18.92,0,0,1,304,213.89l-26.57,1.68V206.9L297.57,204a7.74,7.74,0,0,0,6.3-9.92c-3.56-11.71-9.06-32.93-7.64-48.05C297.09,136.82,308.86,133.52,314.21,141Z" fill="#fff" opacity="0.46"/><path d="M277.38,209s-10.78-.27-9.25,5.35,9.25,1.22,9.25,1.22Z" fill="#f4a28c"/><polygon points="241.5 217.59 237.15 192.98 268.02 192.98 270.7 213.96 284.86 214.16 284.86 217.59 241.5 217.59" fill="#ffd200"/><circle cx="253.8" cy="204.78" r="3.09" fill="#fff"/><rect x="154.67" y="73.33" width="63" height="47.4" fill="#fff"/><rect x="162.01" y="95.25" width="8.75" height="17.98" fill="#a5a5a5"/><rect x="174.29" y="86" width="8.75" height="27.23" fill="#a5a5a5"/><rect x="187.44" y="99.62" width="8.75" height="13.62" fill="#a5a5a5"/><rect x="200.26" y="83.5" width="8.75" height="29.73" fill="#a5a5a5"/><rect x="140.28" y="168.5" width="92.39" height="19.21" fill="#c9c9c9"/><rect x="154.67" y="132.75" width="63" height="8.43" fill="#a5a5a5" opacity="0.66"/><rect x="154.67" y="148.25" width="63" height="8.43" fill="#a5a5a5" opacity="0.25"/><path d="M187.44,120.73s8.9-3.2,7.86,9.28-2.5,44.91-55,57.7v-23L162,158.25l17.75-11.5,3.46-18.91Z" opacity="0.08"/><path d="M339.52,248.64s-8.52-2.33-10.37-10.25c0,0,13.2-2.67,13.57,11Z" fill="#68e1fd" opacity="0.58"/><path d="M340.56,247.79s-5.95-9.4-.71-18.2c0,0,10,6.37,5.57,18.22Z" fill="#68e1fd" opacity="0.73"/><path d="M342.1,247.8s3.14-9.93,12.64-11.82c0,0,1.78,6.45-6.15,11.85Z" fill="#68e1fd"/><polygon points="335.92 247.57 337.65 259.38 348.52 259.43 350.12 247.63 335.92 247.57" fill="#24285b"/><path d="M111.36,119.26s14.09,6.15,24.87,22.09,38.92,10.65,44.08-13.83c0,0,2.11-11.48,5.86-11s0,8.67,0,8.67,5.16.23,4.69,4.22-6.8,7.73-6.8,7.73-11,48.77-64.71,19.23Z" fill="#f4a28c"/><path d="M103.85,100.59s7.84,13.1-1.15,16.47-8.6-20.28-8.6-20.28Z" fill="#24285b"/><path d="M84.23,113.75s-25.42,11.57-25.11,29.83,19.53,50.27,19.53,50.27h40.91V172.67a45,45,0,0,1,4.21-18.9c4.17-8.93,6.43-25.45-21.5-40Z" fill="#68e1fd"/><path d="M89.08,116.87s10.18,7.09,13.2-3.12H92.89Z" fill="#fff"/><path d="M101.46,91.06a32.35,32.35,0,0,1,2.59,8.22,2.62,2.62,0,0,1-2.33,2.87A5.78,5.78,0,0,1,96,99.64l-3-3.71a4.66,4.66,0,0,1,.2-5.38C95.18,87.56,100.25,88.13,101.46,91.06Z" fill="#f4a28c"/><polygon points="94.11 96.78 92.89 113.75 102.28 113.75 99.47 101.72 94.11 96.78" fill="#f4a28c"/><path d="M102.7,94.09l2,1.37a.83.83,0,0,1,0,1.4l-1.74,1Z" fill="#f4a28c"/><path d="M99.55,102.06a6.33,6.33,0,0,1-3.06-1.47s-.61,3.68,3.87,4.91Z" fill="#ce8172" opacity="0.31"/><path d="M98,93.57l-2.19.75s2.39,9.36-.77,17.5a8.45,8.45,0,0,1-12.9,3.56L80.24,114a3.94,3.94,0,0,1,.37-6.56c3.56-2.1,7.26-5.86,6.58-12.24-.81-7.52,6-12.06,10.92-10.84A4.77,4.77,0,0,1,98,93.57Z" fill="#24285b"/><path d="M97.17,96.57s-.73-1.86-2.08-1.19-.32,3.36,1.69,2.9Z" fill="#f4a28c"/><polygon points="82.19 228.2 86.31 258.53 89.89 257.21 91.62 224.75 82.19 228.2" fill="#f4a28c"/><polygon points="119.72 228.61 134.1 255.33 137.78 255.33 129.57 225.67 119.72 228.61" fill="#f4a28c"/><path d="M86.34,256.55s-2.26,2.58-5,2.3-3.3,3.54,1.08,3.37a24.73,24.73,0,0,0,4.06-.47,7.08,7.08,0,0,1,3.67.32,1.17,1.17,0,0,0,1.27-.43c1.31-1.39-1.55-4.9-1.55-4.9Z" fill="#68e1fd"/><path d="M137.74,254.81s1.59,3,4.28,3.42,2.36,4.22-1.85,3a22.55,22.55,0,0,1-3.86-1.45,7.05,7.05,0,0,0-3.61-.54,1.19,1.19,0,0,1-1.13-.72c-.5-.88.28-2.06,1.12-3a3.58,3.58,0,0,1,3.3-1.09Z" fill="#68e1fd"/><rect x="104.01" y="154.56" width="10.89" height="16.1" fill="#ffd200"/><path d="M82.41,127.84S95.66,139,87.81,152s-5.44,26.51,9.36,23.46l14.8-3.06h0s7,12.05-6.3,14.2l1.9,7.23H78.65L75.4,186.2l-5.63-9.47L56.58,165.86Z" opacity="0.08"/><path d="M83.28,131.33a10.11,10.11,0,0,0-16.61-7c-5.38,4.54-11,11.27-13.2,20.57-4.69,19.93-6.52,37.28,5.65,41.5s44.95-8.44,44.95-8.44,10.13,0,10.83-7.27-9.5-4.53-12.2,2.11c0,0-39.61,11.72-34.46-7.27C72.24,150.78,84.24,145.16,83.28,131.33Z" fill="#f4a28c"/><rect x="176.56" y="133.62" width="10.55" height="4.22" transform="translate(61.65 -56.73) rotate(21.28)" fill="#68e1fd"/><polygon points="119.56 193.85 137.58 239.09 74.01 242.64 78.65 193.85 119.56 193.85" fill="#24285b"/><path d="M95.83,94.32l10-2.32S102.7,81.45,94.1,84.48Z" fill="#24285b"/><rect x="210.46" y="46.08" width="39.59" height="30" fill="#ffd200"/><polygon points="222.42 54.08 222.42 68.42 238.42 61.08 222.42 54.08" fill="#fff"/><polygon points="84.63 53.15 84.63 67.13 93.67 67.13 95.64 72.7 97.98 67.13 107.02 67.13 107.02 53.15 84.63 53.15" fill="#e6e6e6"/><circle cx="90.24" cy="59.79" r="1.46" fill="#a5a5a5"/><circle cx="95.82" cy="59.79" r="1.46" fill="#a5a5a5"/><circle cx="101.36" cy="59.79" r="1.46" fill="#a5a5a5"/></svg>